[ConversionWorker] Logging FFmpeg output to: ffmpeg_logs\ffmpeg_conversion_高冷09_wav_20250525_173837.log\n[ConversionWorker] Getting duration with command: ffprobe -v error -show_entries format=duration -of default=noprint_wrappers=1:nokey=1 Z:\Story\高冷\高冷09.wav\n[ConversionWorker] Duration for 高冷09.wav: 3117191 ms\n[ConversionWorker] Starting FFmpeg for 高冷09.wav: ffmpeg -i Z:\Story\高冷\高冷09.wav -b:a 128k -vn -y -loglevel error -stats -progress pipe:1 Z:\Story\高冷\高冷09.mp3\n[ConversionWorker] FFmpeg process started. PID: 8360\n[STDOUT RAW] bitrate= 124.4kbits/s\n[STDOUT RAW] total_size=78380\n[STDOUT RAW] out_time_us=5041958\n[STDOUT RAW] out_time_ms=5041958\n[STDOUT RAW] out_time=00:00:05.041958\n[STDOUT RAW] dup_frames=0\n[STDOUT RAW] drop_frames=0\n[STDOUT RAW] speed=9.82x\n[STDOUT RAW] progress=continue\n[STDERR RAW] size=      77KiB time=00:00:05.04 bitrate= 124.4kbits/s speed=9.82x\n[STDOUT RAW] bitrate= 125.8kbits/s\n[STDOUT RAW] total_size=155180\n[STDOUT RAW] out_time_us=9865958\n[STDOUT RAW] out_time_ms=9865958\n[STDOUT RAW] out_time=00:00:09.865958\n[STDOUT RAW] dup_frames=0\n[STDOUT RAW] drop_frames=0\n[STDOUT RAW] speed=9.66x\n[STDOUT RAW] progress=continue\n[STDERR RAW] size=     152KiB time=00:00:09.86 bitrate= 125.8kbits/s speed=9.66x\n[STDOUT RAW] bitrate= 126.5kbits/s\n[STDOUT RAW] total_size=231980\n[STDOUT RAW] out_time_us=14665958\n[STDOUT RAW] out_time_ms=14665958\n[STDOUT RAW] out_time=00:00:14.665958\n[STDOUT RAW] dup_frames=0\n[STDOUT RAW] drop_frames=0\n[STDOUT RAW] speed=9.55x\n[STDOUT RAW] progress=continue\n[STDERR RAW] size=     227KiB time=00:00:14.66 bitrate= 126.5kbits/s speed=9.55x\n[STDOUT RAW] bitrate= 105.6kbits/s\n[STDOUT RAW] total_size=1048576\n[STDOUT RAW] out_time_us=79465958\n[STDOUT RAW] out_time_ms=79465958\n[STDOUT RAW] out_time=00:01:19.465958\n[STDOUT RAW] dup_frames=0\n[STDOUT RAW] drop_frames=0\n[STDOUT RAW] speed=38.5x\n[STDOUT RAW] progress=continue\n[STDERR RAW] size=    1024KiB time=00:01:19.46 bitrate= 105.6kbits/s speed=38.5x\n[STDOUT RAW] bitrate= 122.3kbits/s\n[STDOUT RAW] total_size=2621440\n[STDOUT RAW] out_time_us=171505958\n[STDOUT RAW] out_time_ms=171505958\n[STDOUT RAW] out_time=00:02:51.505958\n[STDOUT RAW] dup_frames=0\n[STDOUT RAW] drop_frames=0\n[STDOUT RAW] speed=66.5x\n[STDOUT RAW] progress=continue\n[STDERR RAW] size=    2560KiB time=00:02:51.50 bitrate= 122.3kbits/s speed=66.5x\n[STDOUT RAW] bitrate= 126.1kbits/s\n[STDOUT RAW] total_size=4194304\n[STDOUT RAW] out_time_us=266089958\n[STDOUT RAW] out_time_ms=266089958\n[STDOUT RAW] out_time=00:04:26.089958\n[STDOUT RAW] dup_frames=0\n[STDOUT RAW] drop_frames=0\n[STDOUT RAW] speed=86.2x\n[STDOUT RAW] progress=continue\n[STDERR RAW] size=    4096KiB time=00:04:26.08 bitrate= 126.1kbits/s speed=86.2x\n[STDOUT RAW] bitrate= 126.9kbits/s\n[STDOUT RAW] total_size=5767168\n[STDOUT RAW] out_time_us=363577958\n[STDOUT RAW] out_time_ms=363577958\n[STDOUT RAW] out_time=00:06:03.577958\n[STDOUT RAW] dup_frames=0\n[STDOUT RAW] drop_frames=0\n[STDOUT RAW] speed= 101x\n[STDOUT RAW] progress=continue\n[STDOUT RAW] bitrate= 125.6kbits/s\n[STDERR RAW] size=    5632KiB time=00:06:03.57 bitrate= 126.9kbits/s speed= 101x\n[STDOUT RAW] total_size=7340032\n[STDOUT RAW] out_time_us=467401958\n[STDOUT RAW] out_time_ms=467401958\n[STDOUT RAW] out_time=00:07:47.401958\n[STDOUT RAW] dup_frames=0\n[STDOUT RAW] drop_frames=0\n[STDOUT RAW] speed= 114x\n[STDOUT RAW] progress=continue\n[STDERR RAW] size=    7168KiB time=00:07:47.40 bitrate= 125.6kbits/s speed= 114x\n[STDOUT RAW] bitrate= 127.5kbits/s\n[STDOUT RAW] total_size=9175040\n[STDOUT RAW] out_time_us=575617958\n[STDOUT RAW] out_time_ms=575617958\n[STDOUT RAW] out_time=00:09:35.617958\n[STDOUT RAW] dup_frames=0\n[STDOUT RAW] drop_frames=0\n[STDOUT RAW] speed= 124x\n[STDOUT RAW] progress=continue\n[STDERR RAW] size=    8960KiB time=00:09:35.61 bitrate= 127.5kbits/s speed= 124x\n[STDOUT RAW] bitrate= 125.7kbits/s\n[STDOUT RAW] total_size=10747904\n[STDOUT RAW] out_time_us=683929958\n[STDOUT RAW] out_time_ms=683929958\n[STDOUT RAW] out_time=00:11:23.929958\n[STDOUT RAW] dup_frames=0\n[STDOUT RAW] drop_frames=0\n[STDOUT RAW] speed= 133x\n[STDOUT RAW] progress=continue\n[STDERR RAW] size=   10496KiB time=00:11:23.92 bitrate= 125.7kbits/s speed= 133x\n[STDOUT RAW] bitrate= 125.4kbits/s\n[STDOUT RAW] total_size=12320768\n[STDOUT RAW] out_time_us=785857958\n[STDOUT RAW] out_time_ms=785857958\n[STDOUT RAW] out_time=00:13:05.857958\n[STDOUT RAW] dup_frames=0\n[STDOUT RAW] drop_frames=0\n[STDOUT RAW] speed= 139x\n[STDOUT RAW] progress=continue\n[STDERR RAW] size=   12032KiB time=00:13:05.85 bitrate= 125.4kbits/s speed= 139x\n[STDOUT RAW] bitrate= 127.1kbits/s\n[STDOUT RAW] total_size=14155776\n[STDOUT RAW] out_time_us=890689958\n[STDOUT RAW] out_time_ms=890689958\n[STDOUT RAW] out_time=00:14:50.689958\n[STDOUT RAW] dup_frames=0\n[STDOUT RAW] drop_frames=0\n[STDOUT RAW] speed= 144x\n[STDOUT RAW] progress=continue\n[STDOUT RAW] bitrate= 126.2kbits/s\n[STDERR RAW] size=   13824KiB time=00:14:50.68 bitrate= 127.1kbits/s speed= 144x\n[STDOUT RAW] total_size=15728640\n[STDOUT RAW] out_time_us=996817958\n[STDOUT RAW] out_time_ms=996817958\n[STDOUT RAW] out_time=00:16:36.817958\n[STDOUT RAW] dup_frames=0\n[STDOUT RAW] drop_frames=0\n[STDOUT RAW] speed= 149x\n[STDOUT RAW] progress=continue\n[STDERR RAW] size=   15360KiB time=00:16:36.81 bitrate= 126.2kbits/s speed= 149x\n[STDOUT RAW] bitrate= 126.1kbits/s\n[STDOUT RAW] total_size=17301504\n[STDOUT RAW] out_time_us=1097857958\n[STDOUT RAW] out_time_ms=1097857958\n[STDOUT RAW] out_time=00:18:17.857958\n[STDOUT RAW] dup_frames=0\n[STDOUT RAW] drop_frames=0\n[STDOUT RAW] speed= 152x\n[STDOUT RAW] progress=continue\n[STDOUT RAW] bitrate= 127.2kbits/s\n[STDOUT RAW] total_size=19136512\n[STDOUT RAW] out_time_us=1203217958\n[STDERR RAW] size=   16896KiB time=00:18:17.85 bitrate= 126.1kbits/s speed= 152x\n[STDOUT RAW] out_time_ms=1203217958\n[STDOUT RAW] out_time=00:20:03.217958\n[STDOUT RAW] dup_frames=0\n[STDOUT RAW] drop_frames=0\n[STDOUT RAW] speed= 156x\n[STDOUT RAW] progress=continue\n[STDERR RAW] size=   18688KiB time=00:20:03.21 bitrate= 127.2kbits/s speed= 156x\n[STDOUT RAW] bitrate= 126.6kbits/s\n[STDOUT RAW] total_size=20709376\n[STDOUT RAW] out_time_us=1308169958\n[STDOUT RAW] out_time_ms=1308169958\n[STDOUT RAW] out_time=00:21:48.169958\n[STDOUT RAW] dup_frames=0\n[STDOUT RAW] drop_frames=0\n[STDOUT RAW] speed= 159x\n[STDOUT RAW] progress=continue\n[STDERR RAW] size=   20224KiB time=00:21:48.16 bitrate= 126.6kbits/s speed= 159x\n[STDOUT RAW] bitrate= 127.8kbits/s\n[STDOUT RAW] total_size=22544384\n[STDOUT RAW] out_time_us=1410697958\n[STDOUT RAW] out_time_ms=1410697958\n[STDOUT RAW] out_time=00:23:30.697958\n[STDOUT RAW] dup_frames=0\n[STDOUT RAW] drop_frames=0\n[STDOUT RAW] speed= 161x\n[STDOUT RAW] progress=continue\n[STDERR RAW] size=   22016KiB time=00:23:30.69 bitrate= 127.8kbits/s speed= 161x\n[STDOUT RAW] bitrate= 127.1kbits/s\n[STDOUT RAW] total_size=24117248\n[STDOUT RAW] out_time_us=1518121958\n[STDOUT RAW] out_time_ms=1518121958\n[STDOUT RAW] out_time=00:25:18.121958\n[STDOUT RAW] dup_frames=0\n[STDOUT RAW] drop_frames=0\n[STDOUT RAW] speed= 164x\n[STDOUT RAW] progress=continue\n[STDERR RAW] size=   23552KiB time=00:25:18.12 bitrate= 127.1kbits/s speed= 164x\n[STDOUT RAW] bitrate= 127.8kbits/s\n[STDOUT RAW] total_size=25952256\n[STDOUT RAW] out_time_us=1624561958\n[STDOUT RAW] out_time_ms=1624561958\n[STDOUT RAW] out_time=00:27:04.561958\n[STDOUT RAW] dup_frames=0\n[STDOUT RAW] drop_frames=0\n[STDOUT RAW] speed= 166x\n[STDOUT RAW] progress=continue\n[STDERR RAW] size=   25344KiB time=00:27:04.56 bitrate= 127.8kbits/s speed= 166x\n[STDOUT RAW] bitrate= 127.6kbits/s\n[STDOUT RAW] total_size=27525120\n[STDOUT RAW] out_time_us=1725601958\n[STDOUT RAW] out_time_ms=1725601958\n[STDOUT RAW] out_time=00:28:45.601958\n[STDOUT RAW] dup_frames=0\n[STDOUT RAW] drop_frames=0\n[STDOUT RAW] speed= 167x\n[STDOUT RAW] progress=continue\n[STDERR RAW] size=   26880KiB time=00:28:45.60 bitrate= 127.6kbits/s speed= 167x\n[STDOUT RAW] bitrate= 127.0kbits/s\n[STDOUT RAW] total_size=29097984\n[STDOUT RAW] out_time_us=1832473958\n[STDOUT RAW] out_time_ms=1832473958\n[STDOUT RAW] out_time=00:30:32.473958\n[STDOUT RAW] dup_frames=0\n[STDOUT RAW] drop_frames=0\n[STDOUT RAW] speed= 169x\n[STDOUT RAW] progress=continue\n[STDERR RAW] size=   28416KiB time=00:30:32.47 bitrate= 127.0kbits/s speed= 169x\n[STDOUT RAW] bitrate= 126.9kbits/s\n[STDOUT RAW] total_size=30670848\n[STDOUT RAW] out_time_us=1933441958\n[STDOUT RAW] out_time_ms=1933441958\n[STDOUT RAW] out_time=00:32:13.441958\n[STDOUT RAW] dup_frames=0\n[STDOUT RAW] drop_frames=0\n[STDOUT RAW] speed= 171x\n[STDOUT RAW] progress=continue\n[STDERR RAW] size=   29952KiB time=00:32:13.44 bitrate= 126.9kbits/s speed= 171x\n[STDOUT RAW] bitrate= 128.0kbits/s\n[STDOUT RAW] total_size=32505856\n[STDOUT RAW] out_time_us=2031865958\n[STDOUT RAW] out_time_ms=2031865958\n[STDOUT RAW] out_time=00:33:51.865958\n[STDOUT RAW] dup_frames=0\n[STDOUT RAW] drop_frames=0\n[STDOUT RAW] speed= 171x\n[STDOUT RAW] progress=continue\n[STDERR RAW] size=   31744KiB time=00:33:51.86 bitrate= 128.0kbits/s speed= 171x\n[STDOUT RAW] bitrate= 127.8kbits/s\n[STDOUT RAW] total_size=34078720\n[STDOUT RAW] out_time_us=2133241958\n[STDOUT RAW] out_time_ms=2133241958\n[STDOUT RAW] out_time=00:35:33.241958\n[STDOUT RAW] dup_frames=0\n[STDOUT RAW] drop_frames=0\n[STDOUT RAW] speed= 172x\n[STDOUT RAW] progress=continue\n[STDERR RAW] size=   33280KiB time=00:35:33.24 bitrate= 127.8kbits/s speed= 172x\n[STDOUT RAW] bitrate= 127.5kbits/s\n[STDOUT RAW] total_size=35651584\n[STDOUT RAW] out_time_us=2237617958\n[STDOUT RAW] out_time_ms=2237617958\n[STDOUT RAW] out_time=00:37:17.617958\n[STDOUT RAW] dup_frames=0\n[STDOUT RAW] drop_frames=0\n[STDOUT RAW] speed= 174x\n[STDOUT RAW] progress=continue\n[STDERR RAW] size=   34816KiB time=00:37:17.61 bitrate= 127.5kbits/s speed= 174x\n[STDOUT RAW] bitrate= 127.9kbits/s\n[STDOUT RAW] total_size=37486592\n[STDOUT RAW] out_time_us=2344801958\n[STDOUT RAW] out_time_ms=2344801958\n[STDOUT RAW] out_time=00:39:04.801958\n[STDOUT RAW] dup_frames=0\n[STDOUT RAW] drop_frames=0\n[STDOUT RAW] speed= 175x\n[STDOUT RAW] progress=continue\n[STDERR RAW] size=   36608KiB time=00:39:04.80 bitrate= 127.9kbits/s speed= 175x\n[STDOUT RAW] bitrate= 127.3kbits/s\n[STDOUT RAW] total_size=38797312\n[STDOUT RAW] out_time_us=2438305958\n[STDOUT RAW] out_time_ms=2438305958\n[STDOUT RAW] out_time=00:40:38.305958\n[STDOUT RAW] dup_frames=0\n[STDOUT RAW] drop_frames=0\n[STDOUT RAW] speed= 175x\n[STDOUT RAW] progress=continue\n[STDERR RAW] size=   37888KiB time=00:40:38.30 bitrate= 127.3kbits/s speed= 175x\n[STDOUT RAW] bitrate= 127.8kbits/s\n[STDOUT RAW] total_size=40632320\n[STDOUT RAW] out_time_us=2543953958\n[STDOUT RAW] out_time_ms=2543953958\n[STDOUT RAW] out_time=00:42:23.953958\n[STDOUT RAW] dup_frames=0\n[STDOUT RAW] drop_frames=0\n[STDOUT RAW] speed= 176x\n[STDOUT RAW] progress=continue\n[STDERR RAW] size=   39680KiB time=00:42:23.95 bitrate= 127.8kbits/s speed= 176x\n[STDOUT RAW] bitrate= 127.4kbits/s\n[STDOUT RAW] total_size=42205184\n[STDOUT RAW] out_time_us=2650969958\n[STDOUT RAW] out_time_ms=2650969958\n[STDOUT RAW] out_time=00:44:10.969958\n[STDOUT RAW] dup_frames=0\n[STDOUT RAW] drop_frames=0\n[STDOUT RAW] speed= 177x\n[STDOUT RAW] progress=continue\n[STDERR RAW] size=   41216KiB time=00:44:10.96 bitrate= 127.4kbits/s speed= 177x\n[STDOUT RAW] bitrate= 127.2kbits/s\n[STDOUT RAW] total_size=43778048\n[STDOUT RAW] out_time_us=2752633958\n[STDOUT RAW] out_time_ms=2752633958\n[STDOUT RAW] out_time=00:45:52.633958\n[STDOUT RAW] dup_frames=0\n[STDOUT RAW] drop_frames=0\n[STDOUT RAW] speed= 178x\n[STDOUT RAW] progress=continue\n[STDERR RAW] size=   42752KiB time=00:45:52.63 bitrate= 127.2kbits/s speed= 178x\n[STDOUT RAW] bitrate= 127.8kbits/s\n[STDOUT RAW] total_size=45613056\n[STDOUT RAW] out_time_us=2855161958\n[STDOUT RAW] out_time_ms=2855161958\n[STDOUT RAW] out_time=00:47:35.161958\n[STDOUT RAW] dup_frames=0\n[STDOUT RAW] drop_frames=0\n[STDOUT RAW] speed= 179x\n[STDOUT RAW] progress=continue\n[STDERR RAW] size=   44544KiB time=00:47:35.16 bitrate= 127.8kbits/s speed= 179x\n[STDOUT RAW] bitrate= 127.4kbits/s\n[STDOUT RAW] total_size=47185920\n[STDOUT RAW] out_time_us=2963521958\n[STDOUT RAW] out_time_ms=2963521958\n[STDOUT RAW] out_time=00:49:23.521958\n[STDOUT RAW] dup_frames=0\n[STDOUT RAW] drop_frames=0\n[STDOUT RAW] speed= 180x\n[STDOUT RAW] progress=continue\n[STDERR RAW] size=   46080KiB time=00:49:23.52 bitrate= 127.4kbits/s speed= 180x\n[STDOUT RAW] bitrate= 127.8kbits/s\n[STDOUT RAW] total_size=49020928\n[STDOUT RAW] out_time_us=3068161958\n[STDOUT RAW] out_time_ms=3068161958\n[STDOUT RAW] out_time=00:51:08.161958\n[STDOUT RAW] dup_frames=0\n[STDOUT RAW] drop_frames=0\n[STDOUT RAW] speed= 180x\n[STDOUT RAW] progress=continue\n[STDERR RAW] size=   47872KiB time=00:51:08.16 bitrate= 127.8kbits/s speed= 180x\n[STDOUT RAW] bitrate= 128.0kbits/s\n[STDERR RAW] size=   48707KiB time=00:51:57.19 bitrate= 128.0kbits/s speed= 181x\n[STDOUT RAW] total_size=49876268\n[STDOUT RAW] out_time_us=3117191333\n[STDOUT RAW] out_time_ms=3117191333\n[STDOUT RAW] out_time=00:51:57.191333\n[STDOUT RAW] dup_frames=0\n[STDOUT RAW] drop_frames=0\n[STDOUT RAW] speed= 181x\n[STDOUT RAW] progress=end\n[ConversionWorker] STDERR pipe closed signal received.\n[ConversionWorker] Detected 'progress=end' for 高冷09.wav\n[ConversionWorker] STDOUT pipe closed signal received.\n[ConversionWorker] Process finished and both stream pipes closed. Exiting loop.\n[ConversionWorker] Waiting for reader threads to join...\n[ConversionWorker] FFmpeg process ended. Return code: 0\n[ConversionWorker] Closing FFmpeg log file.\n